<?xml version="1.0" encoding="UTF-8" standalone="no"?>
<!DOCTYPE svg PUBLIC "-//W3C//DTD SVG 1.1//EN"
 "http://www.w3.org/Graphics/SVG/1.1/DTD/svg11.dtd">
<!-- Generated by graphviz version 2.43.0 (0)
 -->
<!-- Title: Fetch&#45;Execute Cycle Pages: 1 -->
<svg width="100%" height="auto"
 viewBox="0.00 0.00 2009.86 106.00" xmlns="http://www.w3.org/2000/svg" xmlns:xlink="http://www.w3.org/1999/xlink">
<g id="graph0" class="graph" transform="scale(1 1) rotate(0) translate(4 102)">
<title>Fetch&#45;Execute Cycle</title>
<!-- PC -->
<g id="node1" class="node">
<title>PC</title>
<path fill="#1e3a5f" stroke="#22d3ee" d="M107,-36C107,-36 12,-36 12,-36 6,-36 0,-30 0,-24 0,-24 0,-12 0,-12 0,-6 6,0 12,0 12,0 107,0 107,0 113,0 119,-6 119,-12 119,-12 119,-24 119,-24 119,-30 113,-36 107,-36"/>
<text text-anchor="middle" x="59.5" y="-21.4" font-family="Inter, sans-serif" font-size="12.00" fill="#e2e8f0">Program Counter</text>
<text text-anchor="middle" x="59.5" y="-8.4" font-family="Inter, sans-serif" font-size="12.00" fill="#e2e8f0">(PC)</text>
</g>
<!-- MAR -->
<g id="node2" class="node">
<title>MAR</title>
<path fill="#1e3a5f" stroke="#22d3ee" d="M393,-70C393,-70 300,-70 300,-70 294,-70 288,-64 288,-58 288,-58 288,-46 288,-46 288,-40 294,-34 300,-34 300,-34 393,-34 393,-34 399,-34 405,-40 405,-46 405,-46 405,-58 405,-58 405,-64 399,-70 393,-70"/>
<text text-anchor="middle" x="346.5" y="-55.4" font-family="Inter, sans-serif" font-size="12.00" fill="#e2e8f0">Memory Address</text>
<text text-anchor="middle" x="346.5" y="-42.4" font-family="Inter, sans-serif" font-size="12.00" fill="#e2e8f0">Register (MAR)</text>
</g>
<!-- PC&#45;&gt;MAR -->
<g id="edge1" class="edge">
<title>PC&#45;&gt;MAR</title>
<path fill="none" stroke="#22d3ee" stroke-width="2" d="M119.21,-25C165.3,-30.5 229.54,-38.17 277.8,-43.92"/>
<polygon fill="#22d3ee" stroke="#22d3ee" stroke-width="2" points="277.5,-47.41 287.84,-45.12 278.33,-40.46 277.5,-47.41"/>
<text text-anchor="middle" x="203.5" y="-45.2" font-family="Inter, sans-serif" font-size="11.00" fill="#94a3b8">1. Copy address to MAR</text>
</g>
<!-- RAM -->
<g id="node3" class="node">
<title>RAM</title>
<path fill="#111827" stroke="#6366f1" d="M681,-75.02C681,-77.36 657.02,-79.25 627.5,-79.25 597.98,-79.25 574,-77.36 574,-75.02 574,-75.02 574,-36.98 574,-36.98 574,-34.64 597.98,-32.75 627.5,-32.75 657.02,-32.75 681,-34.64 681,-36.98 681,-36.98 681,-75.02 681,-75.02"/>
<path fill="none" stroke="#6366f1" d="M681,-75.02C681,-72.69 657.02,-70.8 627.5,-70.8 597.98,-70.8 574,-72.69 574,-75.02"/>
<text text-anchor="middle" x="627.5" y="-59.4" font-family="Inter, sans-serif" font-size="12.00" fill="#e2e8f0">RAM</text>
<text text-anchor="middle" x="627.5" y="-46.4" font-family="Inter, sans-serif" font-size="12.00" fill="#e2e8f0">(Main Memory)</text>
</g>
<!-- MAR&#45;&gt;RAM -->
<g id="edge2" class="edge">
<title>MAR&#45;&gt;RAM</title>
<path fill="none" stroke="#6366f1" stroke-width="2" d="M405.31,-52.83C451.55,-53.49 516.29,-54.42 563.79,-55.1"/>
<polygon fill="#6366f1" stroke="#6366f1" stroke-width="2" points="563.9,-58.6 573.95,-55.25 564,-51.6 563.9,-58.6"/>
<text text-anchor="middle" x="489.5" y="-57.2" font-family="Inter, sans-serif" font-size="11.00" fill="#94a3b8">2. Send address via bus</text>
</g>
<!-- MDR -->
<g id="node4" class="node">
<title>MDR</title>
<path fill="#1e3a5f" stroke="#22d3ee" d="M1012,-80C1012,-80 930,-80 930,-80 924,-80 918,-74 918,-68 918,-68 918,-56 918,-56 918,-50 924,-44 930,-44 930,-44 1012,-44 1012,-44 1018,-44 1024,-50 1024,-56 1024,-56 1024,-68 1024,-68 1024,-74 1018,-80 1012,-80"/>
<text text-anchor="middle" x="971" y="-65.4" font-family="Inter, sans-serif" font-size="12.00" fill="#e2e8f0">Memory Data</text>
<text text-anchor="middle" x="971" y="-52.4" font-family="Inter, sans-serif" font-size="12.00" fill="#e2e8f0">Register (MDR)</text>
</g>
<!-- RAM&#45;&gt;MDR -->
<g id="edge3" class="edge">
<title>RAM&#45;&gt;MDR</title>
<path fill="none" stroke="#6366f1" stroke-width="2" d="M681.11,-56.92C742.2,-58 842.87,-59.77 907.79,-60.91"/>
<polygon fill="#6366f1" stroke="#6366f1" stroke-width="2" points="907.83,-64.41 917.89,-61.08 907.95,-57.41 907.83,-64.41"/>
<text text-anchor="middle" x="792" y="-63.2" font-family="Inter, sans-serif" font-size="11.00" fill="#94a3b8">3. Return instruction via data bus</text>
</g>
<!-- CU -->
<g id="node5" class="node">
<title>CU</title>
<polygon fill="#2d1b69" stroke="#a855f7" points="1298,-98 1211,-64 1298,-30 1385,-64 1298,-98"/>
<text text-anchor="middle" x="1298" y="-67.4" font-family="Inter, sans-serif" font-size="12.00" fill="#e2e8f0">Control Unit</text>
<text text-anchor="middle" x="1298" y="-54.4" font-family="Inter, sans-serif" font-size="12.00" fill="#e2e8f0">(Decodes)</text>
</g>
<!-- MDR&#45;&gt;CU -->
<g id="edge4" class="edge">
<title>MDR&#45;&gt;CU</title>
<path fill="none" stroke="#22d3ee" stroke-width="2" d="M1024.22,-62.32C1072.04,-62.62 1143.98,-63.06 1201.98,-63.42"/>
<polygon fill="#22d3ee" stroke="#22d3ee" stroke-width="2" points="1202.24,-66.92 1212.26,-63.48 1202.29,-59.92 1202.24,-66.92"/>
<text text-anchor="middle" x="1125" y="-66.2" font-family="Inter, sans-serif" font-size="11.00" fill="#94a3b8">4. Instruction sent to CU</text>
</g>
<!-- ALU -->
<g id="node6" class="node">
<title>ALU</title>
<polygon fill="#1a3a2a" stroke="#22c55e" points="1753.79,-61 1703.61,-88.52 1603.25,-88.52 1553.07,-61 1603.25,-33.48 1703.61,-33.48 1753.79,-61"/>
<text text-anchor="middle" x="1653.43" y="-64.4" font-family="Inter, sans-serif" font-size="12.00" fill="#e2e8f0">ALU</text>
<text text-anchor="middle" x="1653.43" y="-51.4" font-family="Inter, sans-serif" font-size="12.00" fill="#e2e8f0">(Arithmetic Logic)</text>
</g>
<!-- CU&#45;&gt;ALU -->
<g id="edge5" class="edge">
<title>CU&#45;&gt;ALU</title>
<path fill="none" stroke="#22c55e" stroke-width="2" d="M1383.21,-63.29C1431.44,-62.88 1492.48,-62.36 1544.25,-61.92"/>
<polygon fill="#22c55e" stroke="#22c55e" stroke-width="2" points="1544.5,-65.42 1554.47,-61.83 1544.44,-58.42 1544.5,-65.42"/>
<text text-anchor="middle" x="1469" y="-66.2" font-family="Inter, sans-serif" font-size="11.00" fill="#94a3b8">5. Execute: send to ALU</text>
</g>
<!-- ACC -->
<g id="node7" class="node">
<title>ACC</title>
<path fill="#1e3a5f" stroke="#22d3ee" d="M1989.86,-36C1989.86,-36 1920.86,-36 1920.86,-36 1914.86,-36 1908.86,-30 1908.86,-24 1908.86,-24 1908.86,-12 1908.86,-12 1908.86,-6 1914.86,0 1920.86,0 1920.86,0 1989.86,0 1989.86,0 1995.86,0 2001.86,-6 2001.86,-12 2001.86,-12 2001.86,-24 2001.86,-24 2001.86,-30 1995.86,-36 1989.86,-36"/>
<text text-anchor="middle" x="1955.36" y="-21.4" font-family="Inter, sans-serif" font-size="12.00" fill="#e2e8f0">Accumulator</text>
<text text-anchor="middle" x="1955.36" y="-8.4" font-family="Inter, sans-serif" font-size="12.00" fill="#e2e8f0">(ACC)</text>
</g>
<!-- ALU&#45;&gt;ACC -->
<g id="edge6" class="edge">
<title>ALU&#45;&gt;ACC</title>
<path fill="none" stroke="#22c55e" stroke-width="2" d="M1733.23,-49.7C1785.19,-42.25 1851.98,-32.68 1898.5,-26.01"/>
<polygon fill="#22c55e" stroke="#22c55e" stroke-width="2" points="1899.29,-29.43 1908.69,-24.55 1898.3,-22.5 1899.29,-29.43"/>
<text text-anchor="middle" x="1831.36" y="-46.2" font-family="Inter, sans-serif" font-size="11.00" fill="#94a3b8">6. Store result in ACC</text>
</g>
<!-- ACC&#45;&gt;PC -->
<g id="edge7" class="edge">
<title>ACC&#45;&gt;PC</title>
<path fill="none" stroke="#22d3ee" stroke-width="2" stroke-dasharray="5,2" d="M1908.67,-14.04C1849.9,-9.31 1744.64,-2 1654.43,-2 345.5,-2 345.5,-2 345.5,-2 271.52,-2 186.9,-7.44 129.21,-11.98"/>
<polygon fill="#22d3ee" stroke="#22d3ee" stroke-width="2" points="128.81,-8.5 119.12,-12.78 129.37,-15.48 128.81,-8.5"/>
<text text-anchor="middle" x="971" y="-5.2" font-family="Inter, sans-serif" font-size="11.00" fill="#94a3b8">7. PC increments → next</text>
</g>
</g>
</svg>
